<svg xmlns="http://www.w3.org/2000/svg" version="1.1" xmlns:xlink="http://www.w3.org/1999/xlink" xmlns:svgjs="http://svgjs.dev/svgjs" width="1000" height="1000"><style>
    #light-icon {
      display: inline;
    }
    #dark-icon {
      display: none;
    }

    @media (prefers-color-scheme: dark) {
      #light-icon {
        display: none;
      }
      #dark-icon {
        display: inline;
      }
    }
  </style><g id="light-icon"><svg xmlns="http://www.w3.org/2000/svg" version="1.1" xmlns:xlink="http://www.w3.org/1999/xlink" xmlns:svgjs="http://svgjs.dev/svgjs" width="1000" height="1000"><g clip-path="url(#SvgjsClipPath1271)"><rect width="1000" height="1000" fill="#149f7c"></rect><g transform="matrix(1.6,0,0,1.6,100,100)"><svg xmlns="http://www.w3.org/2000/svg" version="1.1" xmlns:xlink="http://www.w3.org/1999/xlink" xmlns:svgjs="http://svgjs.dev/svgjs" width="500" height="500"><svg xmlns="http://www.w3.org/2000/svg" viewBox="0 0 500 500">
  <g transform="matrix(0.055386, 0, 0, -0.055386, -43.28936, 540.917725)" fill="#000000" stroke="none" id="g34">
    <path d="m 5165.1711,9729.3398 c -123.12,-58.32 -186.3,-140.94 -186.3,-249.4802 -1.62,-38.88 -30.78,-61.56 -288.36,-212.22 -505.44,-296.4598 -960.66,-570.2398 -1041.66,-625.3198 l -77.76,-55.08 -69.66,38.88 c -118.26,68.04 -244.62,50.22 -336.96,-46.98 -30.78,-34.02 -40.5,-64.8 -45.36,-145.8 l -6.48,-102.06 -85.86,-42.12 c -46.98,-22.68 -165.24,-90.72 -262.44,-150.66 -95.58,-59.94 -304.56,-187.92 -463.32,-285.12 l -288.36,-174.96 -79.38,40.5 c -131.2201,66.42 -264.0601,50.22 -369.3601,-46.98 -61.56,-55.08 -87.48,-121.5 -89.1,-221.94 0,-110.16 46.98,-197.64 147.42,-268.92 l 59.94,-43.74 -1.62,-832.68 c -1.62,-800.28 -3.24,-834.3 -32.4,-850.5 -63.18,-32.4 -137.7,-118.26 -152.28,-173.34 -27.54,-103.68 48.6,-267.3 144.18,-306.18 l 48.6,-21.06 v -761.4 c 0,-698.22 -3.24,-761.4 -27.54,-769.5 -59.94,-22.68 -119.88,-76.14 -152.28,-139.32 -38.88,-76.14 -45.36,-210.6 -14.58,-268.92 32.4,-58.32 132.84,-163.62 181.44,-189.54 72.9,-37.26 176.5801,-29.16 249.4801,21.06 l 63.18,42.12 72.9,-40.5 c 42.12,-21.06 194.4,-111.78 341.82,-199.26 435.78,-259.2 505.44,-298.08 618.84,-351.54 105.3,-50.22 106.92,-51.84 98.82,-105.3 -12.96,-76.14 35.64,-191.16 102.06,-241.38 77.76,-59.94 165.24,-68.04 247.86,-22.68 46.98,27.54 71.28,32.4 85.86,19.44 11.34,-8.1 134.46,-82.62 272.16,-162 137.7,-79.38 312.66,-183.06 388.8,-230.04 196.02,-121.5 716.04,-429.3 746.82,-440.64 19.44,-8.1 29.16,-37.26 34.02,-105.3 25.92,-370.98003 578.34,-354.78003 609.12,17.82 l 6.48,84.24 157.14,90.72 c 461.7,265.68 557.28,322.38 620.46,366.12 38.88,25.92 179.82,110.16 312.66,189.54 134.46,77.76 262.44,155.52 285.12,171.72 42.12,29.16 45.36,29.16 119.88,-3.24 56.7,-24.3 90.72,-30.78 139.32,-22.68 127.98,21.06 236.52,163.62 220.32,288.36 -6.48,48.6 -3.24,59.94 17.82,59.94 16.2,0 217.08,110.16 448.74,244.62 231.66,136.08 474.66,273.78 539.46,309.42 l 116.64,64.8 72.9,-34.02 c 84.24,-38.88 200.88,-43.74 264.06,-11.34 152.28,79.38 233.2802,301.32 160.38,442.26 -29.16,55.08 -136.08,150.66 -168.48,150.66 -16.2,0 -21.06,155.52 -21.06,754.92 v 754.92 l 71.28,63.18 c 84.24,74.52 132.84,192.78 116.64,281.88 -12.96,64.8 -76.14,145.8 -140.94,179.82 l -46.98,24.3 v 824.58 824.58 l 45.36,24.3 c 100.44,51.84 165.2402,166.86 165.2402,293.22 0,97.2 -30.7802,166.86 -102.0602,230.04 -110.16,97.2 -249.48,110.16 -364.5,34.02 l -58.32,-38.88 -210.6,124.74 c -116.64,68.04 -332.1,196.02 -479.52,285.12 -147.42,89.1 -302.94,181.44 -346.68,204.12 -74.52,38.88 -77.76,45.36 -82.62,115.02 -12.96,218.7 -199.26,328.86 -390.42,234.9 l -69.66,-35.64 -401.76,239.76 c -220.32,131.22 -492.48,294.8398 -604.26,361.2598 -111.78,68.04 -247.86,147.42 -302.94,176.58 -93.96,51.84 -102.06,59.94 -102.06,110.16 0,113.4002 -59.94,202.5002 -170.1,252.7202 -87.48,40.5 -162,38.88 -259.2,-8.1 z m -119.88,-453.6002 c 16.2,-35.64 4.86,-58.32 -113.4,-231.6598 -71.28,-105.3 -171.72,-260.82 -221.94,-343.44 -50.22,-84.24 -126.36,-205.74 -166.86,-268.92 -40.5,-61.56 -89.1,-144.18 -105.3,-183.06 -29.16,-63.18 -35.64,-68.04 -93.96,-68.04 -71.28,0 -123.12,-21.06 -158.76,-66.42 -24.3,-30.78 -29.16,-29.16 -147.42,37.26 -68.04,38.88 -184.68,98.82 -259.2,134.46 -152.28,72.9 -160.38,79.38 -160.38,140.94 0,63.18 16.2,72.9 720.9,482.76 142.56,82.62 349.92,207.3598 461.7,277.0198 111.78,69.66 207.36,126.36 215.46,127.98 6.48,0 19.44,-17.82 29.16,-38.88 z m 719.28,-95.58 c 53.46,-29.16 251.1,-144.1798 437.4,-254.3398 524.88,-309.42 639.9,-374.22 698.22,-398.52 43.74,-17.82 55.08,-32.4 55.08,-68.04 0,-59.94 -16.2,-116.64 -34.02,-116.64 -8.1,0 -121.5,-56.7 -252.72,-127.98 l -238.14,-126.36 -71.28,37.26 c -40.5,21.06 -97.2,38.88 -126.36,38.88 -51.84,0 -58.32,6.48 -110.16,111.78 -93.96,189.54 -387.18,669.06 -502.2,819.72 -85.86,110.1598 -100.44,147.4198 -74.52,178.1998 17.82,21.06 25.92,21.06 71.28,-6.48 27.54,-17.82 93.96,-56.7 147.42,-87.48 z m -539.46,-738.7198 4.86,-719.28 -56.7,-30.78 c -30.78,-17.82 -71.28,-48.6 -90.72,-71.28 l -32.4,-38.88 -137.7,82.62 c -74.52,45.36 -184.68,106.92 -244.62,137.7 l -106.92,53.46 1.62,90.72 c 1.62,68.04 -6.48,98.82 -34.02,136.08 l -35.64,48.6 136.08,215.46 c 140.94,221.94 277.02,434.16 439.02,682.02 68.04,105.2998 100.44,140.9398 123.12,137.6998 29.16,-4.86 30.78,-38.88 34.02,-724.1398 z m 401.76,400.14 c 118.26,-181.44 272.16,-414.72 341.82,-520.02 l 126.36,-192.78 -32.4,-45.36 c -19.44,-24.3 -38.88,-82.62 -43.74,-131.22 l -11.34,-85.86 -239.76,-142.56 -238.14,-144.18 -50.22,58.32 c -27.54,30.78 -68.04,61.56 -89.1,66.42 l -38.88,9.72 v 677.16 c 0,688.5 4.86,777.5998 40.5,777.5998 11.34,0 116.64,-147.4198 234.9,-327.2398 z m 1504.98,-685.26 c 32.4,-9.72 34.02,-17.82 37.26,-628.56 3.24,-340.2 1.62,-631.8 -1.62,-646.38 -8.1,-45.36 -55.08,-34.02 -92.34,24.3 -121.5,184.68 -218.7,341.82 -241.38,382.32 -12.96,25.92 -100.44,149.04 -192.78,273.78 -204.12,273.78 -204.12,273.78 -189.54,343.44 8.1,45.36 25.92,64.8 82.62,95.58 115.02,59.94 343.44,197.64 396.9,238.14 l 46.98,37.26 59.94,-55.08 c 32.4,-29.16 74.52,-58.32 93.96,-64.8 z m -3235.14,-74.52 c 213.84,-115.02 255.96,-152.28 255.96,-220.32 0,-12.96 -45.36,-87.48 -102.06,-165.24 -115.02,-157.14 -353.16,-516.78 -471.42,-712.8 -63.18,-105.3 -87.48,-131.22 -116.64,-131.22 h -38.88 v 646.38 646.38 l 46.98,19.44 c 25.92,9.72 63.18,35.64 82.62,56.7 35.64,38.88 37.26,38.88 79.38,9.72 22.68,-16.2 142.56,-82.62 264.06,-149.04 z m 3763.26,-11.34 c 116.64,-69.66 327.24,-199.26 469.8,-286.74 142.56,-87.48 289.98,-176.58 328.86,-196.02 38.88,-21.06 61.56,-40.5 51.84,-46.98 -11.34,-6.48 -16.2,-46.98 -14.58,-93.96 l 4.86,-82.62 -468.18,-281.88 c -259.2,-155.52 -489.24,-293.22 -511.92,-307.8 -40.5,-24.3 -45.36,-22.68 -105.3,25.92 -34.02,29.16 -76.14,51.84 -90.72,51.84 -27.54,0 -29.16,37.26 -24.3,651.24 l 4.86,649.62 59.94,38.88 c 32.4,21.06 59.94,46.98 61.56,58.32 1.62,9.72 6.48,3.24 11.34,-16.2 8.1,-22.68 84.24,-79.38 221.94,-163.62 z m -4451.76,126.36 c 22.68,-17.82 51.84,-32.4 63.18,-32.4 19.44,0 22.68,-106.92 19.44,-651.24 -4.86,-649.62 -4.86,-652.86 -38.88,-657.72 -17.82,-3.24 -61.56,-32.4 -95.58,-68.04 l -61.56,-63.18 -82.62,61.56 c -102.06,76.14 -510.3,330.48 -745.2,466.56 l -176.58,100.44 -1.62,113.4 -1.62,113.4 228.42,129.6 c 124.74,71.28 285.12,168.48 356.4,215.46 126.36,82.62 479.52,301.32 489.24,302.94 3.24,1.62 24.3,-12.96 46.98,-30.78 z m 2922.48,-437.4 c 48.6,-35.64 111.78,-45.36 178.2,-25.92 35.64,9.72 46.98,3.24 87.48,-58.32 25.92,-38.88 79.38,-111.78 118.26,-163.62 40.5,-51.84 165.24,-236.52 280.26,-409.86 l 208.98,-314.28 -42.12,-64.8 c -24.3,-35.64 -46.98,-64.8 -51.84,-64.8 -4.86,0 -127.98,58.32 -272.16,131.22 -218.7,108.54 -267.3,139.32 -283.5,178.2 -37.26,90.72 -129.6,121.5 -221.94,72.9 -42.12,-21.06 -48.6,-19.44 -145.8,53.46 -56.7,42.12 -170.1,110.16 -254.34,149.04 l -152.28,71.28 -1.62,89.1 v 89.1 l 176.58,93.96 c 95.58,50.22 207.36,118.26 246.24,149.04 38.88,29.16 74.52,55.08 76.14,55.08 3.24,1.62 27.54,-12.96 53.46,-30.78 z m -1320.3,-176.58 c 168.48,-92.34 181.44,-103.68 192.78,-157.14 6.48,-35.64 3.24,-66.42 -9.72,-81 -9.72,-12.96 -98.82,-66.42 -199.26,-118.26 -98.82,-53.46 -204.12,-115.02 -234.9,-137.7 -43.74,-32.4 -59.94,-37.26 -90.72,-22.68 -58.32,25.92 -145.8,1.62 -192.78,-53.46 -22.68,-27.54 -42.12,-56.7 -42.12,-64.8 0,-8.1 -17.82,-14.58 -38.88,-14.58 -37.26,0 -246.24,-102.06 -427.68,-208.98 -46.98,-27.54 -90.72,-50.22 -98.82,-50.22 -6.48,0 -24.3,25.92 -40.5,58.32 -24.3,51.84 -24.3,63.18 -4.86,85.86 12.96,14.58 40.5,58.32 59.94,97.2 55.08,110.16 260.82,430.92 396.9,617.22 66.42,93.96 127.98,179.82 136.08,191.16 9.72,16.2 22.68,16.2 56.7,3.24 63.18,-24.3 108.54,-19.44 171.72,14.58 l 56.7,29.16 64.8,-42.12 c 35.64,-24.3 145.8,-89.1 244.62,-145.8 z m 3777.84,-383.94 c -3.24,-11.34 -139.32,-223.56 -302.94,-473.04 l -299.7,-451.98 -59.94,1.62 c -43.74,0 -72.9,-9.72 -102.06,-37.26 l -42.12,-40.5 -45.36,42.12 c -24.3,22.68 -85.86,69.66 -139.32,102.06 -87.48,55.08 -93.96,63.18 -84.24,108.54 4.86,27.54 9.72,81 9.72,119.88 0,68.04 3.24,72.9 77.76,110.16 98.82,50.22 635.04,370.98 813.24,486 103.68,66.42 142.56,84.24 158.76,71.28 11.34,-9.72 19.44,-27.54 16.2,-38.88 z m -6266.16,-136.08 c 155.52,-92.34 349.92,-208.98 429.3,-259.2 81,-51.84 176.58,-110.16 213.84,-129.6 89.1,-45.36 97.2,-56.7 110.16,-163.62 9.72,-84.24 8.1,-93.96 -27.54,-118.26 -19.44,-14.58 -93.96,-66.42 -163.62,-115.02 -93.96,-66.42 -127.98,-82.62 -134.46,-66.42 -4.86,12.96 -43.74,32.4 -85.86,43.74 -68.04,16.2 -84.24,30.78 -134.46,110.16 -30.78,50.22 -127.98,204.12 -215.46,341.82 -87.48,137.7 -187.92,289.98 -223.56,336.96 -61.56,84.24 -98.82,170.1 -81,187.92 11.34,11.34 -22.68,29.16 312.66,-168.48 z m 2770.2,115.02 c 34.02,-35.64 79.38,-66.42 100.44,-69.66 l 37.26,-4.86 4.86,-477.9 c 1.62,-262.44 0,-581.58 -6.48,-707.94 l -9.72,-228.42 -45.36,-19.44 c -24.3,-9.72 -61.56,-35.64 -81,-56.7 l -35.64,-37.26 -53.46,34.02 c -29.16,19.44 -123.12,79.38 -208.98,132.84 -286.74,178.2 -309.42,194.4 -315.9,226.8 -17.82,97.2 -134.46,163.62 -213.84,121.5 -29.16,-16.2 -51.84,-6.48 -157.14,63.18 -68.04,43.74 -197.64,123.12 -286.74,176.58 -89.1,51.84 -162,103.68 -160.38,113.4 1.62,11.34 3.24,40.5 4.86,66.42 1.62,42.12 17.82,53.46 223.56,149.04 121.5,56.7 247.86,123.12 281.88,147.42 l 61.56,43.74 63.18,-63.18 c 72.9,-72.9 115.02,-81 191.16,-34.02 63.18,38.88 97.2,127.98 74.52,192.78 -14.58,43.74 -12.96,45.36 92.34,89.1 58.32,24.3 165.24,79.38 236.52,123.12 71.28,43.74 132.84,79.38 136.08,81 3.24,1.62 32.4,-27.54 66.42,-61.56 z m 461.7,29.16 c 6.48,-9.72 66.42,-42.12 134.46,-74.52 69.66,-32.4 173.34,-87.48 231.66,-121.5 102.06,-59.94 108.54,-68.04 118.26,-134.46 14.58,-90.72 82.62,-153.9 166.86,-153.9 43.74,0 69.66,12.96 113.4,56.7 51.84,51.84 59.94,55.08 84.24,34.02 14.58,-12.96 69.66,-43.74 123.12,-68.04 174.96,-79.38 383.94,-207.36 400.14,-243 9.72,-21.06 12.96,-46.98 8.1,-59.94 -4.86,-12.96 -77.76,-63.18 -160.38,-108.54 -82.62,-46.98 -207.36,-121.5 -275.4,-165.24 -103.68,-63.18 -139.32,-77.76 -200.88,-77.76 -68.04,0 -79.38,-6.48 -165.24,-95.58 -50.22,-53.46 -139.32,-123.12 -197.64,-157.14 -58.32,-32.4 -155.52,-93.96 -218.7,-136.08 -183.06,-123.12 -179.82,-121.5 -236.52,-74.52 -27.54,24.3 -66.42,46.98 -89.1,51.84 l -38.88,9.72 v 703.08 703.08 l 55.08,22.68 c 29.16,12.96 68.04,42.12 84.24,64.8 34.02,45.36 46.98,50.22 63.18,24.3 z m -3510.54,-319.14 c 87.48,-131.22 223.56,-340.2 301.32,-463.32 l 140.94,-225.18 -43.74,-45.36 c -34.02,-35.64 -45.36,-66.42 -51.84,-136.08 -6.48,-87.48 -6.48,-90.72 64.8,-160.38 92.34,-92.34 137.7,-103.68 231.66,-58.32 40.5,19.44 76.14,34.02 79.38,30.78 1.62,-3.24 68.04,-98.82 147.42,-212.22 77.76,-115.02 147.42,-207.36 155.52,-207.36 8.1,0 9.72,-43.74 3.24,-97.2 -6.48,-63.18 -1.62,-121.5 11.34,-160.38 22.68,-71.28 19.44,-79.38 -202.5,-374.22 -152.28,-202.5 -153.9,-202.5 -220.32,-170.1 -30.78,16.2 -69.66,24.3 -97.2,17.82 -38.88,-8.1 -74.52,9.72 -213.84,108.54 -90.72,64.8 -221.94,153.9 -289.98,197.64 -69.66,45.36 -126.36,87.48 -126.36,93.96 0,6.48 14.58,40.5 32.4,76.14 38.88,76.14 40.5,126.36 8.1,207.36 -32.4,74.52 -77.76,124.74 -139.32,149.04 -25.9201,11.34 -43.7401,25.92 -38.8801,32.4 3.24,4.86 9.72,374.22 14.58,818.1 8.1001,801.9 11.3401,855.36 59.9401,824.58 8.1,-3.24 84.24,-115.02 173.34,-246.24 z m 6718.14,236.52 c 4.86,-11.34 9.72,-387.18 11.34,-834.3 l 4.86,-811.62 -53.46,-37.26 c -136.08,-92.34 -168.48,-226.8 -85.86,-356.4 l 45.36,-72.9 -66.42,-38.88 c -116.64,-66.42 -421.2,-272.16 -466.56,-314.28 -37.26,-35.64 -50.22,-38.88 -85.86,-25.92 -63.18,24.3 -81,21.06 -137.7,-27.54 -48.6,-40.5 -53.46,-40.5 -68.04,-14.58 -9.72,16.2 -98.82,139.32 -200.88,273.78 -121.5,162 -181.44,254.34 -173.34,270.54 19.44,45.36 24.3,162 8.1,210.6 -11.34,32.4 -12.96,51.84 -1.62,58.32 9.72,4.86 43.74,51.84 74.52,102.06 32.4,50.22 84.24,119.88 116.64,155.52 32.4,35.64 79.38,89.1 103.68,119.88 45.36,55.08 46.98,55.08 92.34,29.16 51.84,-30.78 132.84,-35.64 179.82,-9.72 58.32,30.78 127.98,160.38 127.98,236.52 0,74.52 -34.02,158.76 -68.04,170.1 -22.68,8.1 30.78,98.82 260.82,450.36 307.8,471.42 358.02,531.36 382.32,466.56 z m -5467.5,-1229.58 v -354.78 l -63.18,-30.78 -63.18,-32.4 -81,116.64 c -45.36,64.8 -118.26,160.38 -163.62,212.22 -76.14,89.1 -81,102.06 -85.86,194.4 l -4.86,97.2 144.18,97.2 c 77.76,53.46 145.8,105.3 149.04,115.02 4.86,12.96 34.02,4.86 87.48,-21.06 l 81,-40.5 z m 359.64,392.04 c 38.88,-25.92 166.86,-103.68 285.12,-171.72 166.86,-97.2 225.18,-140.94 255.96,-187.92 46.98,-74.52 111.78,-111.78 197.64,-111.78 42.12,0 87.48,-16.2 142.56,-51.84 124.74,-79.38 366.12,-225.18 419.58,-254.34 45.36,-24.3 48.6,-32.4 48.6,-123.12 1.62,-53.46 6.48,-115.02 12.96,-137.7 11.34,-38.88 0,-50.22 -194.4,-178.2 -113.4,-76.14 -234.9,-157.14 -267.3,-183.06 -56.7,-42.12 -64.8,-43.74 -123.12,-25.92 -110.16,32.4 -179.82,-19.44 -241.38,-174.96 -6.48,-19.44 -140.94,-119.88 -315.9,-236.52 l -302.94,-202.5 -74.52,38.88 -74.52,37.26 -8.1,325.62 -6.48,324 h 35.64 c 48.6,0 168.48,131.22 192.78,210.6 16.2,50.22 16.2,79.38 0,131.22 -22.68,74.52 -134.46,205.74 -186.3,218.7 -34.02,8.1 -34.02,16.2 -34.02,359.64 v 351.54 l 81,42.12 c 45.36,22.68 82.62,43.74 84.24,45.36 1.62,0 35.64,-19.44 72.9,-45.36 z m 3389.04,16.2 c 14.58,-16.2 48.6,-34.02 76.14,-40.5 l 46.98,-8.1 v -353.16 -353.16 l -51.84,-30.78 c -153.9,-87.48 -213.84,-247.86 -142.56,-385.56 45.36,-89.1 106.92,-153.9 155.52,-165.24 l 38.88,-9.72 v -324 c 0,-262.44 -4.86,-324 -22.68,-324 -11.34,0 -48.6,-19.44 -82.62,-42.12 l -61.56,-40.5 -42.12,37.26 c -22.68,21.06 -153.9,111.78 -288.36,200.88 -136.08,87.48 -247.86,171.72 -247.86,184.68 0,12.96 -14.58,55.08 -30.78,92.34 -48.6,105.3 -162,149.04 -241.38,92.34 -34.02,-22.68 -40.5,-21.06 -105.3,30.78 -89.1,71.28 -293.22,207.36 -375.84,251.1 -124.74,63.18 -129.6,71.28 -97.2,132.84 21.06,40.5 25.92,77.76 19.44,149.04 -4.86,51.84 -3.24,93.96 3.24,93.96 12.96,0 456.84,262.44 524.88,311.04 27.54,19.44 59.94,29.16 79.38,24.3 51.84,-14.58 132.84,27.54 176.58,87.48 50.22,71.28 55.08,76.14 283.5,208.98 106.92,61.56 223.56,134.46 259.2,160.38 76.14,56.7 90.72,59.94 126.36,19.44 z m 429.3,-8.1 c 24.3,-21.06 92.34,-71.28 153.9,-113.4 l 111.78,-74.52 4.86,-92.34 c 4.86,-85.86 1.62,-97.2 -48.6,-150.66 -29.16,-30.78 -103.68,-121.5 -163.62,-202.5 -61.56,-79.38 -116.64,-152.28 -123.12,-160.38 -8.1,-8.1 -34.02,-6.48 -61.56,6.48 l -50.22,19.44 v 370.98 370.98 l 40.5,9.72 c 21.06,4.86 46.98,19.44 58.32,32.4 24.3,30.78 30.78,29.16 77.76,-16.2 z m -2353.86,-1193.94 c 4.86,-9.72 34.02,-27.54 64.8,-40.5 l 53.46,-22.68 -1.62,-380.7 -1.62,-380.7 -59.94,-34.02 c -97.2,-55.08 -157.14,-192.78 -127.98,-293.22 22.68,-81 82.62,-157.14 140.94,-178.2 l 51.84,-19.44 v -296.46 c 0,-246.24 -3.24,-296.46 -22.68,-296.46 -12.96,0 -56.7,-24.3 -95.58,-55.08 l -72.9,-55.08 -239.76,134.46 -241.38,134.46 -11.34,76.14 c -21.06,142.56 -136.08,207.36 -246.24,139.32 l -56.7,-35.64 -93.96,72.9 c -79.38,59.94 -460.08,288.36 -511.92,306.18 -9.72,3.24 -8.1,17.82 4.86,42.12 19.44,37.26 16.2,127.98 -8.1,204.12 -8.1,27.54 21.06,51.84 197.64,160.38 113.4,71.28 246.24,152.28 291.6,183.06 46.98,29.16 90.72,53.46 97.2,53.46 8.1,0 30.78,-14.58 53.46,-32.4 53.46,-40.5 145.8,-42.12 197.64,0 48.6,37.26 85.86,155.52 71.28,223.56 -9.72,42.12 -6.48,50.22 42.12,69.66 69.66,27.54 416.34,259.2 456.84,304.56 34.02,38.88 51.84,42.12 68.04,16.2 z m 656.1,-186.3 c 277.02,-184.68 280.26,-187.92 275.4,-241.38 -8.1,-100.44 85.86,-218.7 174.96,-218.7 22.68,0 66.42,14.58 97.2,34.02 51.84,30.78 55.08,30.78 85.86,4.86 43.74,-42.12 361.26,-241.38 463.32,-293.22 63.18,-34.02 82.62,-50.22 72.9,-69.66 -6.48,-12.96 -12.96,-74.52 -14.58,-136.08 -1.62,-93.96 -6.48,-115.02 -32.4,-124.74 -38.88,-14.58 -398.52,-246.24 -481.14,-311.04 -59.94,-45.36 -61.56,-46.98 -115.02,-21.06 -30.78,14.58 -74.52,25.92 -97.2,25.92 -59.94,0 -152.28,-87.48 -165.24,-155.52 -6.48,-34.02 -24.3,-63.18 -45.36,-74.52 -61.56,-30.78 -405,-244.62 -434.16,-268.92 -25.92,-21.06 -35.64,-17.82 -93.96,35.64 -35.64,32.4 -76.14,58.32 -89.1,58.32 -21.06,0 -24.3,43.74 -24.3,296.46 v 294.84 l 51.84,25.92 c 116.64,56.7 166.86,273.78 89.1,388.8 -19.44,30.78 -59.94,69.66 -87.48,87.48 l -51.84,32.4 -1.62,375.84 v 374.22 l 61.56,32.4 c 32.4,17.82 64.8,32.4 71.28,34.02 4.86,0 136.08,-82.62 289.98,-186.3 z m 1803.06,-136.08 c 97.2,-131.22 187.92,-260.82 200.88,-285.12 22.68,-42.12 21.06,-46.98 -22.68,-84.24 -25.92,-21.06 -103.68,-76.14 -171.72,-124.74 l -123.12,-85.86 -35.64,37.26 c -19.44,21.06 -55.08,46.98 -81,56.7 l -43.74,17.82 -1.62,324 v 322.38 l 40.5,32.4 c 22.68,17.82 45.36,32.4 51.84,30.78 4.86,0 89.1,-108.54 186.3,-241.38 z m -4325.4,194.4 42.12,-16.2 v -319.14 -320.76 l -89.1,-46.98 -87.48,-45.36 -140.94,85.86 c -76.14,46.98 -150.66,102.06 -163.62,123.12 -22.68,34.02 -22.68,40.5 3.24,71.28 16.2,17.82 45.36,55.08 63.18,85.86 50.22,79.38 306.18,398.52 319.14,398.52 6.48,0 30.78,-6.48 53.46,-16.2 z m -1399.68,-48.6 c 0,-8.1 30.78,-35.64 69.66,-59.94 37.26,-24.3 149.04,-95.58 246.24,-160.38 98.82,-64.8 205.74,-129.6 239.76,-144.18 45.36,-19.44 58.32,-30.78 46.98,-45.36 -9.72,-11.34 -21.06,-45.36 -27.54,-77.76 -9.72,-51.84 -4.86,-66.42 37.26,-113.4 l 46.98,-53.46 -82.62,-111.78 c -89.1,-121.5 -278.64,-393.66 -416.34,-599.4 -79.38,-116.64 -89.1,-126.36 -134.46,-121.5 l -50.22,4.86 -4.86,750.06 c -1.62,495.72 1.62,748.44 12.96,748.44 8.1,0 16.2,-6.48 16.2,-16.2 z m 6917.4,-745.2 v -761.4 l -43.74,1.62 c -48.6,1.62 -48.6,1.62 -481.14,656.1 l -142.56,217.08 40.5,34.02 c 53.46,40.5 72.9,131.22 40.5,179.82 -24.3,35.64 -21.06,38.88 74.52,97.2 55.08,32.4 150.66,89.1 215.46,126.36 64.8,35.64 152.28,98.82 194.4,137.7 42.12,38.88 82.62,71.28 90.72,72.9 6.48,0 11.34,-341.82 11.34,-761.4 z m -842.4,79.38 c 43.74,-30.78 108.54,-102.06 163.62,-183.06 48.6,-71.28 178.2,-260.82 286.74,-417.96 108.54,-157.14 197.64,-296.46 197.64,-311.04 0,-53.46 -42.12,-40.5 -207.36,68.04 -239.76,153.9 -520.02,325.62 -683.64,416.34 -76.14,40.5 -142.56,79.38 -147.42,85.86 -6.48,6.48 -14.58,51.84 -19.44,100.44 l -8.1,90.72 84.24,43.74 c 45.36,24.3 119.88,69.66 163.62,100.44 45.36,29.16 84.24,55.08 89.1,55.08 3.24,1.62 40.5,-21.06 81,-48.6 z m -5031.72,-53.46 c 63.18,-38.88 131.22,-76.14 150.66,-81 32.4,-9.72 34.02,-19.44 25.92,-95.58 -11.34,-102.06 -14.58,-108.54 -121.5,-165.24 -163.62,-85.86 -604.26,-353.16 -745.2,-450.36 -132.84,-90.72 -174.96,-103.68 -174.96,-51.84 0,12.96 43.74,85.86 97.2,162 53.46,76.14 106.92,158.76 121.5,184.68 12.96,25.92 100.44,150.66 194.4,275.4 137.7,183.06 184.68,234.9 239.76,259.2 37.26,17.82 74.52,32.4 82.62,32.4 6.48,1.62 64.8,-30.78 129.6,-69.66 z m 354.78,-510.3 43.74,-17.82 v -631.8 c 0,-375.84 -6.48,-631.8 -14.58,-631.8 -8.1,0 -37.26,-17.82 -63.18,-40.5 -27.54,-22.68 -53.46,-34.02 -58.32,-25.92 -4.86,8.1 -95.58,64.8 -199.26,124.74 -105.3,61.56 -286.74,170.1 -405,244.62 -118.26,74.52 -270.54,162 -340.2,194.4 -69.66,34.02 -129.6,63.18 -132.84,64.8 -3.24,3.24 1.62,22.68 12.96,43.74 11.34,21.06 17.82,72.9 14.58,116.64 l -4.86,79.38 137.7,72.9 c 76.14,40.5 170.1,95.58 210.6,123.12 40.5,27.54 174.96,110.16 299.7,184.68 124.74,74.52 254.34,155.52 289.98,181.44 l 61.56,43.74 51.84,-55.08 c 29.16,-30.78 72.9,-63.18 95.58,-71.28 z m 4364.28,27.54 c 77.76,-45.36 291.6,-174.96 474.66,-288.36 183.06,-111.78 353.16,-213.84 377.46,-223.56 42.12,-17.82 45.36,-25.92 35.64,-81 -4.86,-34.02 -1.62,-81 6.48,-105.3 16.2,-42.12 12.96,-43.74 -149.04,-134.46 -228.42,-126.36 -605.88,-349.92 -785.7,-463.32 l -149.04,-95.58 -64.8,51.84 -64.8,51.84 v 626.94 628.56 l 46.98,8.1 c 27.54,6.48 64.8,32.4 84.24,59.94 21.06,25.92 38.88,48.6 40.5,48.6 1.62,0 68.04,-37.26 147.42,-84.24 z m -626.94,56.7 c 0,-27.54 -301.32,-515.16 -594.54,-965.52 -82.62,-124.74 -150.66,-234.9 -150.66,-241.38 0,-6.48 -27.54,-19.44 -59.94,-27.54 -34.02,-9.72 -77.76,-27.54 -97.2,-42.12 -19.44,-12.96 -37.26,-17.82 -40.5,-11.34 -9.72,25.92 -152.28,113.4 -314.28,194.4 l -162,81 1.62,92.34 1.62,90.72 158.76,87.48 c 89.1,48.6 197.64,116.64 243,150.66 l 82.62,63.18 48.6,-30.78 c 64.8,-38.88 155.52,-37.26 208.98,4.86 53.46,42.12 90.72,113.4 81,153.9 -4.86,24.3 17.82,45.36 110.16,98.82 64.8,37.26 194.4,123.12 288.36,189.54 166.86,119.88 194.4,136.08 194.4,111.78 z m -3223.8,-106.92 c 294.84,-179.82 383.94,-233.28 409.86,-243 19.44,-8.1 27.54,-27.54 27.54,-74.52 0,-131.22 137.7,-217.08 251.1,-155.52 l 53.46,27.54 162,-98.82 c 89.1,-53.46 204.12,-118.26 254.34,-142.56 l 90.72,-45.36 -9.72,-81 c -6.48,-43.74 -21.06,-89.1 -34.02,-98.82 -12.96,-11.34 -118.26,-68.04 -234.9,-127.98 -210.6,-106.92 -212.22,-108.54 -281.88,-89.1 -95.58,25.92 -106.92,42.12 -729,989.82 -71.28,108.54 -132.84,204.12 -136.08,213.84 -9.72,25.92 64.8,-6.48 176.58,-74.52 z m -108.54,-265.68 c 208.98,-322.38 317.52,-481.14 502.2,-738.72 123.12,-173.34 124.74,-174.96 100.44,-221.94 -34.02,-64.8 -30.78,-134.46 8.1,-212.22 40.5,-77.76 90.72,-100.44 178.2,-81 35.64,8.1 64.8,8.1 64.8,1.62 0,-8.1 100.44,-165.24 223.56,-351.54 351.54,-531.36 354.78,-536.22 311.04,-563.76 -16.2,-9.72 -387.18,189.54 -526.5,283.5 -35.64,24.3 -149.04,93.96 -251.1,153.9 -615.6,362.88 -618.84,364.5 -560.52,364.5 12.96,0 29.16,6.48 34.02,16.2 6.48,9.72 -6.48,9.72 -34.02,0 -71.28,-27.54 -82.62,-11.34 -90.72,111.78 -6.48,129.6 -37.26,184.68 -129.6,234.9 l -56.7,32.4 -8.1,615.6 c -4.86,340.2 -6.48,622.08 -1.62,630.18 21.06,37.26 66.42,-16.2 236.52,-275.4 z m 3517.02,243 c 0,-21.06 -1.62,-302.94 -3.24,-626.94 l -3.24,-591.3 -68.04,-37.26 c -92.34,-50.22 -147.42,-155.52 -137.7,-255.96 l 8.1,-72.9 -189.54,-118.26 c -205.74,-129.6 -473.04,-288.36 -763.02,-451.98 -102.06,-58.32 -238.14,-137.7 -301.32,-176.58 -187.92,-116.64 -205.74,-92.34 -74.52,102.06 53.46,79.38 111.78,174.96 132.84,215.46 21.06,40.5 100.44,170.1 176.58,286.74 l 139.32,215.46 h 77.76 c 102.06,0 131.22,17.82 163.62,97.2 30.78,76.14 32.4,137.7 8.1,208.98 -17.82,50.22 -12.96,59.94 126.36,265.68 81,118.26 158.76,239.76 174.96,270.54 16.2,30.78 55.08,97.2 85.86,145.8 336.96,521.64 372.6,570.24 414.72,563.76 22.68,-3.24 34.02,-16.2 32.4,-40.5 z m -2078.46,-1009.26 c 30.78,-27.54 72.9,-53.46 95.58,-58.32 l 40.5,-9.72 3.24,-605.88 c 3.24,-578.34 1.62,-605.88 -27.54,-605.88 -19.44,0 -84.24,84.24 -208.98,272.16 -98.82,149.04 -228.42,343.44 -288.36,432.54 -100.44,149.04 -110.16,170.1 -113.4,254.34 l -4.86,92.34 170.1,92.34 c 92.34,51.84 192.78,113.4 221.94,137.7 29.16,25.92 55.08,45.36 55.08,46.98 1.62,0 27.54,-22.68 56.7,-48.6 z m 612.36,-74.52 c 283.5,-162 293.22,-170.1 293.22,-265.68 0,-69.66 -12.96,-98.82 -102.06,-238.14 -56.7,-87.48 -142.56,-228.42 -189.54,-312.66 -110.16,-194.4 -255.96,-405 -280.26,-405 -61.56,1.62 -63.18,12.96 -71.28,576.72 -3.24,302.94 -3.24,571.86 3.24,599.4 6.48,37.26 19.44,55.08 48.6,61.56 21.06,4.86 51.84,27.54 68.04,50.22 16.2,21.06 32.4,40.5 35.64,40.5 3.24,0 90.72,-48.6 194.4,-106.92 z" id="path4" style="stroke-width:1.62"></path>
    <path d="m 7765.2711,7584.4598 c -100.44,-30.78 -132.84,-174.96 -56.7,-246.24 59.94,-55.08 131.22,-50.22 189.54,12.96 51.84,59.94 59.94,127.98 17.82,179.82 -30.78,37.26 -111.78,66.42 -150.66,53.46 z" id="path6" style="stroke-width:1.62"></path>
    <path d="m 2714.1111,7565.0198 c -50.22,-46.98 -58.32,-100.44 -27.54,-160.38 61.56,-121.5 217.08,-93.96 244.62,43.74 8.1,42.12 1.62,58.32 -38.88,100.44 -58.32,58.32 -126.36,64.8 -178.2,16.2 z" id="path8" style="stroke-width:1.62"></path>
    <path d="m 5694.9111,6403.4798 c -19.44,-16.2 -38.88,-48.6 -45.36,-72.9 -8.1,-35.64 0,-53.46 38.88,-93.96 59.94,-58.32 105.3,-61.56 157.14,-8.1 63.18,61.56 51.84,139.32 -25.92,178.2 -59.94,30.78 -84.24,30.78 -124.74,-3.24 z" id="path10" style="stroke-width:1.62"></path>
    <path d="m 2475.9711,5288.9198 c -22.68,-21.06 -40.5,-55.08 -40.5,-72.9 0,-68.04 61.56,-144.18 116.64,-145.8 37.26,0 93.96,76.14 93.96,129.6 0,55.08 -56.7,129.6 -98.82,129.6 -17.82,0 -50.22,-17.82 -71.28,-40.5 z" id="path12" style="stroke-width:1.62"></path>
    <path d="m 7953.1911,5309.9798 c -56.7,-81 -14.58,-191.16 74.52,-191.16 89.1,0 145.8,140.94 81,199.26 -43.74,40.5 -126.36,35.64 -155.52,-8.1 z" id="path14" style="stroke-width:1.62"></path>
    <path d="m 4249.8711,5413.6598 c -59.94,-59.94 -61.56,-98.82 -6.48,-163.62 51.84,-61.56 115.02,-66.42 165.24,-12.96 68.04,72.9 32.4,191.16 -64.8,215.46 -35.64,8.1 -53.46,0 -93.96,-38.88 z" id="path16" style="stroke-width:1.62"></path>
    <path d="m 6180.9111,5405.5598 c -51.84,-55.08 -46.98,-131.22 11.34,-171.72 61.56,-45.36 106.92,-42.12 155.52,6.48 46.98,45.36 50.22,72.9 16.2,136.08 -38.88,76.14 -126.36,90.72 -183.06,29.16 z" id="path18" style="stroke-width:1.62"></path>
    <path d="m 4285.5111,4103.0798 c -51.84,-45.36 -53.46,-124.74 -3.24,-179.82 43.74,-46.98 98.82,-45.36 145.8,3.24 50.22,55.08 46.98,119.88 -6.48,166.86 -51.84,45.36 -92.34,46.98 -136.08,9.72 z" id="path20" style="stroke-width:1.62"></path>
    <path d="m 2744.8911,3236.3798 c -103.68,-55.08 -121.5,-153.9 -42.12,-233.28 82.62,-82.62 208.98,-30.78 228.42,93.96 17.82,100.44 -97.2,184.68 -186.3,139.32 z" id="path22" style="stroke-width:1.62"></path>
    <path d="m 7700.4711,3199.1198 c -53.46,-58.32 -50.22,-147.42 8.1,-197.64 136.08,-118.26 319.14,68.04 192.78,196.02 -58.32,56.7 -147.42,58.32 -200.88,1.62 z" id="path24" style="stroke-width:1.62"></path>
    <path d="m 8849.0511,2113.7198 c -8483.09152,7276.0281 -4241.5458,3638.0141 0,0 z" id="path32" style="stroke-width:1.62"></path>
  </g>
</svg></svg></g></g><defs><clipPath id="SvgjsClipPath1271"><rect width="1000" height="1000" x="0" y="0" rx="350" ry="350"></rect></clipPath></defs></svg></g><g id="dark-icon"><svg xmlns="http://www.w3.org/2000/svg" version="1.1" xmlns:xlink="http://www.w3.org/1999/xlink" xmlns:svgjs="http://svgjs.dev/svgjs" width="1000" height="1000"><g clip-path="url(#SvgjsClipPath1272)"><rect width="1000" height="1000" fill="#3890e8"></rect><g transform="matrix(1.6,0,0,1.6,100,100)"><svg xmlns="http://www.w3.org/2000/svg" version="1.1" xmlns:xlink="http://www.w3.org/1999/xlink" xmlns:svgjs="http://svgjs.dev/svgjs" width="500" height="500"><svg xmlns="http://www.w3.org/2000/svg" viewBox="0 0 500 500">
  <g transform="matrix(0.055386, 0, 0, -0.055386, -43.28936, 540.917725)" fill="#000000" stroke="none" id="g34">
    <path d="m 5165.1711,9729.3398 c -123.12,-58.32 -186.3,-140.94 -186.3,-249.4802 -1.62,-38.88 -30.78,-61.56 -288.36,-212.22 -505.44,-296.4598 -960.66,-570.2398 -1041.66,-625.3198 l -77.76,-55.08 -69.66,38.88 c -118.26,68.04 -244.62,50.22 -336.96,-46.98 -30.78,-34.02 -40.5,-64.8 -45.36,-145.8 l -6.48,-102.06 -85.86,-42.12 c -46.98,-22.68 -165.24,-90.72 -262.44,-150.66 -95.58,-59.94 -304.56,-187.92 -463.32,-285.12 l -288.36,-174.96 -79.38,40.5 c -131.2201,66.42 -264.0601,50.22 -369.3601,-46.98 -61.56,-55.08 -87.48,-121.5 -89.1,-221.94 0,-110.16 46.98,-197.64 147.42,-268.92 l 59.94,-43.74 -1.62,-832.68 c -1.62,-800.28 -3.24,-834.3 -32.4,-850.5 -63.18,-32.4 -137.7,-118.26 -152.28,-173.34 -27.54,-103.68 48.6,-267.3 144.18,-306.18 l 48.6,-21.06 v -761.4 c 0,-698.22 -3.24,-761.4 -27.54,-769.5 -59.94,-22.68 -119.88,-76.14 -152.28,-139.32 -38.88,-76.14 -45.36,-210.6 -14.58,-268.92 32.4,-58.32 132.84,-163.62 181.44,-189.54 72.9,-37.26 176.5801,-29.16 249.4801,21.06 l 63.18,42.12 72.9,-40.5 c 42.12,-21.06 194.4,-111.78 341.82,-199.26 435.78,-259.2 505.44,-298.08 618.84,-351.54 105.3,-50.22 106.92,-51.84 98.82,-105.3 -12.96,-76.14 35.64,-191.16 102.06,-241.38 77.76,-59.94 165.24,-68.04 247.86,-22.68 46.98,27.54 71.28,32.4 85.86,19.44 11.34,-8.1 134.46,-82.62 272.16,-162 137.7,-79.38 312.66,-183.06 388.8,-230.04 196.02,-121.5 716.04,-429.3 746.82,-440.64 19.44,-8.1 29.16,-37.26 34.02,-105.3 25.92,-370.98003 578.34,-354.78003 609.12,17.82 l 6.48,84.24 157.14,90.72 c 461.7,265.68 557.28,322.38 620.46,366.12 38.88,25.92 179.82,110.16 312.66,189.54 134.46,77.76 262.44,155.52 285.12,171.72 42.12,29.16 45.36,29.16 119.88,-3.24 56.7,-24.3 90.72,-30.78 139.32,-22.68 127.98,21.06 236.52,163.62 220.32,288.36 -6.48,48.6 -3.24,59.94 17.82,59.94 16.2,0 217.08,110.16 448.74,244.62 231.66,136.08 474.66,273.78 539.46,309.42 l 116.64,64.8 72.9,-34.02 c 84.24,-38.88 200.88,-43.74 264.06,-11.34 152.28,79.38 233.2802,301.32 160.38,442.26 -29.16,55.08 -136.08,150.66 -168.48,150.66 -16.2,0 -21.06,155.52 -21.06,754.92 v 754.92 l 71.28,63.18 c 84.24,74.52 132.84,192.78 116.64,281.88 -12.96,64.8 -76.14,145.8 -140.94,179.82 l -46.98,24.3 v 824.58 824.58 l 45.36,24.3 c 100.44,51.84 165.2402,166.86 165.2402,293.22 0,97.2 -30.7802,166.86 -102.0602,230.04 -110.16,97.2 -249.48,110.16 -364.5,34.02 l -58.32,-38.88 -210.6,124.74 c -116.64,68.04 -332.1,196.02 -479.52,285.12 -147.42,89.1 -302.94,181.44 -346.68,204.12 -74.52,38.88 -77.76,45.36 -82.62,115.02 -12.96,218.7 -199.26,328.86 -390.42,234.9 l -69.66,-35.64 -401.76,239.76 c -220.32,131.22 -492.48,294.8398 -604.26,361.2598 -111.78,68.04 -247.86,147.42 -302.94,176.58 -93.96,51.84 -102.06,59.94 -102.06,110.16 0,113.4002 -59.94,202.5002 -170.1,252.7202 -87.48,40.5 -162,38.88 -259.2,-8.1 z m -119.88,-453.6002 c 16.2,-35.64 4.86,-58.32 -113.4,-231.6598 -71.28,-105.3 -171.72,-260.82 -221.94,-343.44 -50.22,-84.24 -126.36,-205.74 -166.86,-268.92 -40.5,-61.56 -89.1,-144.18 -105.3,-183.06 -29.16,-63.18 -35.64,-68.04 -93.96,-68.04 -71.28,0 -123.12,-21.06 -158.76,-66.42 -24.3,-30.78 -29.16,-29.16 -147.42,37.26 -68.04,38.88 -184.68,98.82 -259.2,134.46 -152.28,72.9 -160.38,79.38 -160.38,140.94 0,63.18 16.2,72.9 720.9,482.76 142.56,82.62 349.92,207.3598 461.7,277.0198 111.78,69.66 207.36,126.36 215.46,127.98 6.48,0 19.44,-17.82 29.16,-38.88 z m 719.28,-95.58 c 53.46,-29.16 251.1,-144.1798 437.4,-254.3398 524.88,-309.42 639.9,-374.22 698.22,-398.52 43.74,-17.82 55.08,-32.4 55.08,-68.04 0,-59.94 -16.2,-116.64 -34.02,-116.64 -8.1,0 -121.5,-56.7 -252.72,-127.98 l -238.14,-126.36 -71.28,37.26 c -40.5,21.06 -97.2,38.88 -126.36,38.88 -51.84,0 -58.32,6.48 -110.16,111.78 -93.96,189.54 -387.18,669.06 -502.2,819.72 -85.86,110.1598 -100.44,147.4198 -74.52,178.1998 17.82,21.06 25.92,21.06 71.28,-6.48 27.54,-17.82 93.96,-56.7 147.42,-87.48 z m -539.46,-738.7198 4.86,-719.28 -56.7,-30.78 c -30.78,-17.82 -71.28,-48.6 -90.72,-71.28 l -32.4,-38.88 -137.7,82.62 c -74.52,45.36 -184.68,106.92 -244.62,137.7 l -106.92,53.46 1.62,90.72 c 1.62,68.04 -6.48,98.82 -34.02,136.08 l -35.64,48.6 136.08,215.46 c 140.94,221.94 277.02,434.16 439.02,682.02 68.04,105.2998 100.44,140.9398 123.12,137.6998 29.16,-4.86 30.78,-38.88 34.02,-724.1398 z m 401.76,400.14 c 118.26,-181.44 272.16,-414.72 341.82,-520.02 l 126.36,-192.78 -32.4,-45.36 c -19.44,-24.3 -38.88,-82.62 -43.74,-131.22 l -11.34,-85.86 -239.76,-142.56 -238.14,-144.18 -50.22,58.32 c -27.54,30.78 -68.04,61.56 -89.1,66.42 l -38.88,9.72 v 677.16 c 0,688.5 4.86,777.5998 40.5,777.5998 11.34,0 116.64,-147.4198 234.9,-327.2398 z m 1504.98,-685.26 c 32.4,-9.72 34.02,-17.82 37.26,-628.56 3.24,-340.2 1.62,-631.8 -1.62,-646.38 -8.1,-45.36 -55.08,-34.02 -92.34,24.3 -121.5,184.68 -218.7,341.82 -241.38,382.32 -12.96,25.92 -100.44,149.04 -192.78,273.78 -204.12,273.78 -204.12,273.78 -189.54,343.44 8.1,45.36 25.92,64.8 82.62,95.58 115.02,59.94 343.44,197.64 396.9,238.14 l 46.98,37.26 59.94,-55.08 c 32.4,-29.16 74.52,-58.32 93.96,-64.8 z m -3235.14,-74.52 c 213.84,-115.02 255.96,-152.28 255.96,-220.32 0,-12.96 -45.36,-87.48 -102.06,-165.24 -115.02,-157.14 -353.16,-516.78 -471.42,-712.8 -63.18,-105.3 -87.48,-131.22 -116.64,-131.22 h -38.88 v 646.38 646.38 l 46.98,19.44 c 25.92,9.72 63.18,35.64 82.62,56.7 35.64,38.88 37.26,38.88 79.38,9.72 22.68,-16.2 142.56,-82.62 264.06,-149.04 z m 3763.26,-11.34 c 116.64,-69.66 327.24,-199.26 469.8,-286.74 142.56,-87.48 289.98,-176.58 328.86,-196.02 38.88,-21.06 61.56,-40.5 51.84,-46.98 -11.34,-6.48 -16.2,-46.98 -14.58,-93.96 l 4.86,-82.62 -468.18,-281.88 c -259.2,-155.52 -489.24,-293.22 -511.92,-307.8 -40.5,-24.3 -45.36,-22.68 -105.3,25.92 -34.02,29.16 -76.14,51.84 -90.72,51.84 -27.54,0 -29.16,37.26 -24.3,651.24 l 4.86,649.62 59.94,38.88 c 32.4,21.06 59.94,46.98 61.56,58.32 1.62,9.72 6.48,3.24 11.34,-16.2 8.1,-22.68 84.24,-79.38 221.94,-163.62 z m -4451.76,126.36 c 22.68,-17.82 51.84,-32.4 63.18,-32.4 19.44,0 22.68,-106.92 19.44,-651.24 -4.86,-649.62 -4.86,-652.86 -38.88,-657.72 -17.82,-3.24 -61.56,-32.4 -95.58,-68.04 l -61.56,-63.18 -82.62,61.56 c -102.06,76.14 -510.3,330.48 -745.2,466.56 l -176.58,100.44 -1.62,113.4 -1.62,113.4 228.42,129.6 c 124.74,71.28 285.12,168.48 356.4,215.46 126.36,82.62 479.52,301.32 489.24,302.94 3.24,1.62 24.3,-12.96 46.98,-30.78 z m 2922.48,-437.4 c 48.6,-35.64 111.78,-45.36 178.2,-25.92 35.64,9.72 46.98,3.24 87.48,-58.32 25.92,-38.88 79.38,-111.78 118.26,-163.62 40.5,-51.84 165.24,-236.52 280.26,-409.86 l 208.98,-314.28 -42.12,-64.8 c -24.3,-35.64 -46.98,-64.8 -51.84,-64.8 -4.86,0 -127.98,58.32 -272.16,131.22 -218.7,108.54 -267.3,139.32 -283.5,178.2 -37.26,90.72 -129.6,121.5 -221.94,72.9 -42.12,-21.06 -48.6,-19.44 -145.8,53.46 -56.7,42.12 -170.1,110.16 -254.34,149.04 l -152.28,71.28 -1.62,89.1 v 89.1 l 176.58,93.96 c 95.58,50.22 207.36,118.26 246.24,149.04 38.88,29.16 74.52,55.08 76.14,55.08 3.24,1.62 27.54,-12.96 53.46,-30.78 z m -1320.3,-176.58 c 168.48,-92.34 181.44,-103.68 192.78,-157.14 6.48,-35.64 3.24,-66.42 -9.72,-81 -9.72,-12.96 -98.82,-66.42 -199.26,-118.26 -98.82,-53.46 -204.12,-115.02 -234.9,-137.7 -43.74,-32.4 -59.94,-37.26 -90.72,-22.68 -58.32,25.92 -145.8,1.62 -192.78,-53.46 -22.68,-27.54 -42.12,-56.7 -42.12,-64.8 0,-8.1 -17.82,-14.58 -38.88,-14.58 -37.26,0 -246.24,-102.06 -427.68,-208.98 -46.98,-27.54 -90.72,-50.22 -98.82,-50.22 -6.48,0 -24.3,25.92 -40.5,58.32 -24.3,51.84 -24.3,63.18 -4.86,85.86 12.96,14.58 40.5,58.32 59.94,97.2 55.08,110.16 260.82,430.92 396.9,617.22 66.42,93.96 127.98,179.82 136.08,191.16 9.72,16.2 22.68,16.2 56.7,3.24 63.18,-24.3 108.54,-19.44 171.72,14.58 l 56.7,29.16 64.8,-42.12 c 35.64,-24.3 145.8,-89.1 244.62,-145.8 z m 3777.84,-383.94 c -3.24,-11.34 -139.32,-223.56 -302.94,-473.04 l -299.7,-451.98 -59.94,1.62 c -43.74,0 -72.9,-9.72 -102.06,-37.26 l -42.12,-40.5 -45.36,42.12 c -24.3,22.68 -85.86,69.66 -139.32,102.06 -87.48,55.08 -93.96,63.18 -84.24,108.54 4.86,27.54 9.72,81 9.72,119.88 0,68.04 3.24,72.9 77.76,110.16 98.82,50.22 635.04,370.98 813.24,486 103.68,66.42 142.56,84.24 158.76,71.28 11.34,-9.72 19.44,-27.54 16.2,-38.88 z m -6266.16,-136.08 c 155.52,-92.34 349.92,-208.98 429.3,-259.2 81,-51.84 176.58,-110.16 213.84,-129.6 89.1,-45.36 97.2,-56.7 110.16,-163.62 9.72,-84.24 8.1,-93.96 -27.54,-118.26 -19.44,-14.58 -93.96,-66.42 -163.62,-115.02 -93.96,-66.42 -127.98,-82.62 -134.46,-66.42 -4.86,12.96 -43.74,32.4 -85.86,43.74 -68.04,16.2 -84.24,30.78 -134.46,110.16 -30.78,50.22 -127.98,204.12 -215.46,341.82 -87.48,137.7 -187.92,289.98 -223.56,336.96 -61.56,84.24 -98.82,170.1 -81,187.92 11.34,11.34 -22.68,29.16 312.66,-168.48 z m 2770.2,115.02 c 34.02,-35.64 79.38,-66.42 100.44,-69.66 l 37.26,-4.86 4.86,-477.9 c 1.62,-262.44 0,-581.58 -6.48,-707.94 l -9.72,-228.42 -45.36,-19.44 c -24.3,-9.72 -61.56,-35.64 -81,-56.7 l -35.64,-37.26 -53.46,34.02 c -29.16,19.44 -123.12,79.38 -208.98,132.84 -286.74,178.2 -309.42,194.4 -315.9,226.8 -17.82,97.2 -134.46,163.62 -213.84,121.5 -29.16,-16.2 -51.84,-6.48 -157.14,63.18 -68.04,43.74 -197.64,123.12 -286.74,176.58 -89.1,51.84 -162,103.68 -160.38,113.4 1.62,11.34 3.24,40.5 4.86,66.42 1.62,42.12 17.82,53.46 223.56,149.04 121.5,56.7 247.86,123.12 281.88,147.42 l 61.56,43.74 63.18,-63.18 c 72.9,-72.9 115.02,-81 191.16,-34.02 63.18,38.88 97.2,127.98 74.52,192.78 -14.58,43.74 -12.96,45.36 92.34,89.1 58.32,24.3 165.24,79.38 236.52,123.12 71.28,43.74 132.84,79.38 136.08,81 3.24,1.62 32.4,-27.54 66.42,-61.56 z m 461.7,29.16 c 6.48,-9.72 66.42,-42.12 134.46,-74.52 69.66,-32.4 173.34,-87.48 231.66,-121.5 102.06,-59.94 108.54,-68.04 118.26,-134.46 14.58,-90.72 82.62,-153.9 166.86,-153.9 43.74,0 69.66,12.96 113.4,56.7 51.84,51.84 59.94,55.08 84.24,34.02 14.58,-12.96 69.66,-43.74 123.12,-68.04 174.96,-79.38 383.94,-207.36 400.14,-243 9.72,-21.06 12.96,-46.98 8.1,-59.94 -4.86,-12.96 -77.76,-63.18 -160.38,-108.54 -82.62,-46.98 -207.36,-121.5 -275.4,-165.24 -103.68,-63.18 -139.32,-77.76 -200.88,-77.76 -68.04,0 -79.38,-6.48 -165.24,-95.58 -50.22,-53.46 -139.32,-123.12 -197.64,-157.14 -58.32,-32.4 -155.52,-93.96 -218.7,-136.08 -183.06,-123.12 -179.82,-121.5 -236.52,-74.52 -27.54,24.3 -66.42,46.98 -89.1,51.84 l -38.88,9.72 v 703.08 703.08 l 55.08,22.68 c 29.16,12.96 68.04,42.12 84.24,64.8 34.02,45.36 46.98,50.22 63.18,24.3 z m -3510.54,-319.14 c 87.48,-131.22 223.56,-340.2 301.32,-463.32 l 140.94,-225.18 -43.74,-45.36 c -34.02,-35.64 -45.36,-66.42 -51.84,-136.08 -6.48,-87.48 -6.48,-90.72 64.8,-160.38 92.34,-92.34 137.7,-103.68 231.66,-58.32 40.5,19.44 76.14,34.02 79.38,30.78 1.62,-3.24 68.04,-98.82 147.42,-212.22 77.76,-115.02 147.42,-207.36 155.52,-207.36 8.1,0 9.72,-43.74 3.24,-97.2 -6.48,-63.18 -1.62,-121.5 11.34,-160.38 22.68,-71.28 19.44,-79.38 -202.5,-374.22 -152.28,-202.5 -153.9,-202.5 -220.32,-170.1 -30.78,16.2 -69.66,24.3 -97.2,17.82 -38.88,-8.1 -74.52,9.72 -213.84,108.54 -90.72,64.8 -221.94,153.9 -289.98,197.64 -69.66,45.36 -126.36,87.48 -126.36,93.96 0,6.48 14.58,40.5 32.4,76.14 38.88,76.14 40.5,126.36 8.1,207.36 -32.4,74.52 -77.76,124.74 -139.32,149.04 -25.9201,11.34 -43.7401,25.92 -38.8801,32.4 3.24,4.86 9.72,374.22 14.58,818.1 8.1001,801.9 11.3401,855.36 59.9401,824.58 8.1,-3.24 84.24,-115.02 173.34,-246.24 z m 6718.14,236.52 c 4.86,-11.34 9.72,-387.18 11.34,-834.3 l 4.86,-811.62 -53.46,-37.26 c -136.08,-92.34 -168.48,-226.8 -85.86,-356.4 l 45.36,-72.9 -66.42,-38.88 c -116.64,-66.42 -421.2,-272.16 -466.56,-314.28 -37.26,-35.64 -50.22,-38.88 -85.86,-25.92 -63.18,24.3 -81,21.06 -137.7,-27.54 -48.6,-40.5 -53.46,-40.5 -68.04,-14.58 -9.72,16.2 -98.82,139.32 -200.88,273.78 -121.5,162 -181.44,254.34 -173.34,270.54 19.44,45.36 24.3,162 8.1,210.6 -11.34,32.4 -12.96,51.84 -1.62,58.32 9.72,4.86 43.74,51.84 74.52,102.06 32.4,50.22 84.24,119.88 116.64,155.52 32.4,35.64 79.38,89.1 103.68,119.88 45.36,55.08 46.98,55.08 92.34,29.16 51.84,-30.78 132.84,-35.64 179.82,-9.72 58.32,30.78 127.98,160.38 127.98,236.52 0,74.52 -34.02,158.76 -68.04,170.1 -22.68,8.1 30.78,98.82 260.82,450.36 307.8,471.42 358.02,531.36 382.32,466.56 z m -5467.5,-1229.58 v -354.78 l -63.18,-30.78 -63.18,-32.4 -81,116.64 c -45.36,64.8 -118.26,160.38 -163.62,212.22 -76.14,89.1 -81,102.06 -85.86,194.4 l -4.86,97.2 144.18,97.2 c 77.76,53.46 145.8,105.3 149.04,115.02 4.86,12.96 34.02,4.86 87.48,-21.06 l 81,-40.5 z m 359.64,392.04 c 38.88,-25.92 166.86,-103.68 285.12,-171.72 166.86,-97.2 225.18,-140.94 255.96,-187.92 46.98,-74.52 111.78,-111.78 197.64,-111.78 42.12,0 87.48,-16.2 142.56,-51.84 124.74,-79.38 366.12,-225.18 419.58,-254.34 45.36,-24.3 48.6,-32.4 48.6,-123.12 1.62,-53.46 6.48,-115.02 12.96,-137.7 11.34,-38.88 0,-50.22 -194.4,-178.2 -113.4,-76.14 -234.9,-157.14 -267.3,-183.06 -56.7,-42.12 -64.8,-43.74 -123.12,-25.92 -110.16,32.4 -179.82,-19.44 -241.38,-174.96 -6.48,-19.44 -140.94,-119.88 -315.9,-236.52 l -302.94,-202.5 -74.52,38.88 -74.52,37.26 -8.1,325.62 -6.48,324 h 35.64 c 48.6,0 168.48,131.22 192.78,210.6 16.2,50.22 16.2,79.38 0,131.22 -22.68,74.52 -134.46,205.74 -186.3,218.7 -34.02,8.1 -34.02,16.2 -34.02,359.64 v 351.54 l 81,42.12 c 45.36,22.68 82.62,43.74 84.24,45.36 1.62,0 35.64,-19.44 72.9,-45.36 z m 3389.04,16.2 c 14.58,-16.2 48.6,-34.02 76.14,-40.5 l 46.98,-8.1 v -353.16 -353.16 l -51.84,-30.78 c -153.9,-87.48 -213.84,-247.86 -142.56,-385.56 45.36,-89.1 106.92,-153.9 155.52,-165.24 l 38.88,-9.72 v -324 c 0,-262.44 -4.86,-324 -22.68,-324 -11.34,0 -48.6,-19.44 -82.62,-42.12 l -61.56,-40.5 -42.12,37.26 c -22.68,21.06 -153.9,111.78 -288.36,200.88 -136.08,87.48 -247.86,171.72 -247.86,184.68 0,12.96 -14.58,55.08 -30.78,92.34 -48.6,105.3 -162,149.04 -241.38,92.34 -34.02,-22.68 -40.5,-21.06 -105.3,30.78 -89.1,71.28 -293.22,207.36 -375.84,251.1 -124.74,63.18 -129.6,71.28 -97.2,132.84 21.06,40.5 25.92,77.76 19.44,149.04 -4.86,51.84 -3.24,93.96 3.24,93.96 12.96,0 456.84,262.44 524.88,311.04 27.54,19.44 59.94,29.16 79.38,24.3 51.84,-14.58 132.84,27.54 176.58,87.48 50.22,71.28 55.08,76.14 283.5,208.98 106.92,61.56 223.56,134.46 259.2,160.38 76.14,56.7 90.72,59.94 126.36,19.44 z m 429.3,-8.1 c 24.3,-21.06 92.34,-71.28 153.9,-113.4 l 111.78,-74.52 4.86,-92.34 c 4.86,-85.86 1.62,-97.2 -48.6,-150.66 -29.16,-30.78 -103.68,-121.5 -163.62,-202.5 -61.56,-79.38 -116.64,-152.28 -123.12,-160.38 -8.1,-8.1 -34.02,-6.48 -61.56,6.48 l -50.22,19.44 v 370.98 370.98 l 40.5,9.72 c 21.06,4.86 46.98,19.44 58.32,32.4 24.3,30.78 30.78,29.16 77.76,-16.2 z m -2353.86,-1193.94 c 4.86,-9.72 34.02,-27.54 64.8,-40.5 l 53.46,-22.68 -1.62,-380.7 -1.62,-380.7 -59.94,-34.02 c -97.2,-55.08 -157.14,-192.78 -127.98,-293.22 22.68,-81 82.62,-157.14 140.94,-178.2 l 51.84,-19.44 v -296.46 c 0,-246.24 -3.24,-296.46 -22.68,-296.46 -12.96,0 -56.7,-24.3 -95.58,-55.08 l -72.9,-55.08 -239.76,134.46 -241.38,134.46 -11.34,76.14 c -21.06,142.56 -136.08,207.36 -246.24,139.32 l -56.7,-35.64 -93.96,72.9 c -79.38,59.94 -460.08,288.36 -511.92,306.18 -9.72,3.24 -8.1,17.82 4.86,42.12 19.44,37.26 16.2,127.98 -8.1,204.12 -8.1,27.54 21.06,51.84 197.64,160.38 113.4,71.28 246.24,152.28 291.6,183.06 46.98,29.16 90.72,53.46 97.2,53.46 8.1,0 30.78,-14.58 53.46,-32.4 53.46,-40.5 145.8,-42.12 197.64,0 48.6,37.26 85.86,155.52 71.28,223.56 -9.72,42.12 -6.48,50.22 42.12,69.66 69.66,27.54 416.34,259.2 456.84,304.56 34.02,38.88 51.84,42.12 68.04,16.2 z m 656.1,-186.3 c 277.02,-184.68 280.26,-187.92 275.4,-241.38 -8.1,-100.44 85.86,-218.7 174.96,-218.7 22.68,0 66.42,14.58 97.2,34.02 51.84,30.78 55.08,30.78 85.86,4.86 43.74,-42.12 361.26,-241.38 463.32,-293.22 63.18,-34.02 82.62,-50.22 72.9,-69.66 -6.48,-12.96 -12.96,-74.52 -14.58,-136.08 -1.62,-93.96 -6.48,-115.02 -32.4,-124.74 -38.88,-14.58 -398.52,-246.24 -481.14,-311.04 -59.94,-45.36 -61.56,-46.98 -115.02,-21.06 -30.78,14.58 -74.52,25.92 -97.2,25.92 -59.94,0 -152.28,-87.48 -165.24,-155.52 -6.48,-34.02 -24.3,-63.18 -45.36,-74.52 -61.56,-30.78 -405,-244.62 -434.16,-268.92 -25.92,-21.06 -35.64,-17.82 -93.96,35.64 -35.64,32.4 -76.14,58.32 -89.1,58.32 -21.06,0 -24.3,43.74 -24.3,296.46 v 294.84 l 51.84,25.92 c 116.64,56.7 166.86,273.78 89.1,388.8 -19.44,30.78 -59.94,69.66 -87.48,87.48 l -51.84,32.4 -1.62,375.84 v 374.22 l 61.56,32.4 c 32.4,17.82 64.8,32.4 71.28,34.02 4.86,0 136.08,-82.62 289.98,-186.3 z m 1803.06,-136.08 c 97.2,-131.22 187.92,-260.82 200.88,-285.12 22.68,-42.12 21.06,-46.98 -22.68,-84.24 -25.92,-21.06 -103.68,-76.14 -171.72,-124.74 l -123.12,-85.86 -35.64,37.26 c -19.44,21.06 -55.08,46.98 -81,56.7 l -43.74,17.82 -1.62,324 v 322.38 l 40.5,32.4 c 22.68,17.82 45.36,32.4 51.84,30.78 4.86,0 89.1,-108.54 186.3,-241.38 z m -4325.4,194.4 42.12,-16.2 v -319.14 -320.76 l -89.1,-46.98 -87.48,-45.36 -140.94,85.86 c -76.14,46.98 -150.66,102.06 -163.62,123.12 -22.68,34.02 -22.68,40.5 3.24,71.28 16.2,17.82 45.36,55.08 63.18,85.86 50.22,79.38 306.18,398.52 319.14,398.52 6.48,0 30.78,-6.48 53.46,-16.2 z m -1399.68,-48.6 c 0,-8.1 30.78,-35.64 69.66,-59.94 37.26,-24.3 149.04,-95.58 246.24,-160.38 98.82,-64.8 205.74,-129.6 239.76,-144.18 45.36,-19.44 58.32,-30.78 46.98,-45.36 -9.72,-11.34 -21.06,-45.36 -27.54,-77.76 -9.72,-51.84 -4.86,-66.42 37.26,-113.4 l 46.98,-53.46 -82.62,-111.78 c -89.1,-121.5 -278.64,-393.66 -416.34,-599.4 -79.38,-116.64 -89.1,-126.36 -134.46,-121.5 l -50.22,4.86 -4.86,750.06 c -1.62,495.72 1.62,748.44 12.96,748.44 8.1,0 16.2,-6.48 16.2,-16.2 z m 6917.4,-745.2 v -761.4 l -43.74,1.62 c -48.6,1.62 -48.6,1.62 -481.14,656.1 l -142.56,217.08 40.5,34.02 c 53.46,40.5 72.9,131.22 40.5,179.82 -24.3,35.64 -21.06,38.88 74.52,97.2 55.08,32.4 150.66,89.1 215.46,126.36 64.8,35.64 152.28,98.82 194.4,137.7 42.12,38.88 82.62,71.28 90.72,72.9 6.48,0 11.34,-341.82 11.34,-761.4 z m -842.4,79.38 c 43.74,-30.78 108.54,-102.06 163.62,-183.06 48.6,-71.28 178.2,-260.82 286.74,-417.96 108.54,-157.14 197.64,-296.46 197.64,-311.04 0,-53.46 -42.12,-40.5 -207.36,68.04 -239.76,153.9 -520.02,325.62 -683.64,416.34 -76.14,40.5 -142.56,79.38 -147.42,85.86 -6.48,6.48 -14.58,51.84 -19.44,100.44 l -8.1,90.72 84.24,43.74 c 45.36,24.3 119.88,69.66 163.62,100.44 45.36,29.16 84.24,55.08 89.1,55.08 3.24,1.62 40.5,-21.06 81,-48.6 z m -5031.72,-53.46 c 63.18,-38.88 131.22,-76.14 150.66,-81 32.4,-9.72 34.02,-19.44 25.92,-95.58 -11.34,-102.06 -14.58,-108.54 -121.5,-165.24 -163.62,-85.86 -604.26,-353.16 -745.2,-450.36 -132.84,-90.72 -174.96,-103.68 -174.96,-51.84 0,12.96 43.74,85.86 97.2,162 53.46,76.14 106.92,158.76 121.5,184.68 12.96,25.92 100.44,150.66 194.4,275.4 137.7,183.06 184.68,234.9 239.76,259.2 37.26,17.82 74.52,32.4 82.62,32.4 6.48,1.62 64.8,-30.78 129.6,-69.66 z m 354.78,-510.3 43.74,-17.82 v -631.8 c 0,-375.84 -6.48,-631.8 -14.58,-631.8 -8.1,0 -37.26,-17.82 -63.18,-40.5 -27.54,-22.68 -53.46,-34.02 -58.32,-25.92 -4.86,8.1 -95.58,64.8 -199.26,124.74 -105.3,61.56 -286.74,170.1 -405,244.62 -118.26,74.52 -270.54,162 -340.2,194.4 -69.66,34.02 -129.6,63.18 -132.84,64.8 -3.24,3.24 1.62,22.68 12.96,43.74 11.34,21.06 17.82,72.9 14.58,116.64 l -4.86,79.38 137.7,72.9 c 76.14,40.5 170.1,95.58 210.6,123.12 40.5,27.54 174.96,110.16 299.7,184.68 124.74,74.52 254.34,155.52 289.98,181.44 l 61.56,43.74 51.84,-55.08 c 29.16,-30.78 72.9,-63.18 95.58,-71.28 z m 4364.28,27.54 c 77.76,-45.36 291.6,-174.96 474.66,-288.36 183.06,-111.78 353.16,-213.84 377.46,-223.56 42.12,-17.82 45.36,-25.92 35.64,-81 -4.86,-34.02 -1.62,-81 6.48,-105.3 16.2,-42.12 12.96,-43.74 -149.04,-134.46 -228.42,-126.36 -605.88,-349.92 -785.7,-463.32 l -149.04,-95.58 -64.8,51.84 -64.8,51.84 v 626.94 628.56 l 46.98,8.1 c 27.54,6.48 64.8,32.4 84.24,59.94 21.06,25.92 38.88,48.6 40.5,48.6 1.62,0 68.04,-37.26 147.42,-84.24 z m -626.94,56.7 c 0,-27.54 -301.32,-515.16 -594.54,-965.52 -82.62,-124.74 -150.66,-234.9 -150.66,-241.38 0,-6.48 -27.54,-19.44 -59.94,-27.54 -34.02,-9.72 -77.76,-27.54 -97.2,-42.12 -19.44,-12.96 -37.26,-17.82 -40.5,-11.34 -9.72,25.92 -152.28,113.4 -314.28,194.4 l -162,81 1.62,92.34 1.62,90.72 158.76,87.48 c 89.1,48.6 197.64,116.64 243,150.66 l 82.62,63.18 48.6,-30.78 c 64.8,-38.88 155.52,-37.26 208.98,4.86 53.46,42.12 90.72,113.4 81,153.9 -4.86,24.3 17.82,45.36 110.16,98.82 64.8,37.26 194.4,123.12 288.36,189.54 166.86,119.88 194.4,136.08 194.4,111.78 z m -3223.8,-106.92 c 294.84,-179.82 383.94,-233.28 409.86,-243 19.44,-8.1 27.54,-27.54 27.54,-74.52 0,-131.22 137.7,-217.08 251.1,-155.52 l 53.46,27.54 162,-98.82 c 89.1,-53.46 204.12,-118.26 254.34,-142.56 l 90.72,-45.36 -9.72,-81 c -6.48,-43.74 -21.06,-89.1 -34.02,-98.82 -12.96,-11.34 -118.26,-68.04 -234.9,-127.98 -210.6,-106.92 -212.22,-108.54 -281.88,-89.1 -95.58,25.92 -106.92,42.12 -729,989.82 -71.28,108.54 -132.84,204.12 -136.08,213.84 -9.72,25.92 64.8,-6.48 176.58,-74.52 z m -108.54,-265.68 c 208.98,-322.38 317.52,-481.14 502.2,-738.72 123.12,-173.34 124.74,-174.96 100.44,-221.94 -34.02,-64.8 -30.78,-134.46 8.1,-212.22 40.5,-77.76 90.72,-100.44 178.2,-81 35.64,8.1 64.8,8.1 64.8,1.62 0,-8.1 100.44,-165.24 223.56,-351.54 351.54,-531.36 354.78,-536.22 311.04,-563.76 -16.2,-9.72 -387.18,189.54 -526.5,283.5 -35.64,24.3 -149.04,93.96 -251.1,153.9 -615.6,362.88 -618.84,364.5 -560.52,364.5 12.96,0 29.16,6.48 34.02,16.2 6.48,9.72 -6.48,9.72 -34.02,0 -71.28,-27.54 -82.62,-11.34 -90.72,111.78 -6.48,129.6 -37.26,184.68 -129.6,234.9 l -56.7,32.4 -8.1,615.6 c -4.86,340.2 -6.48,622.08 -1.62,630.18 21.06,37.26 66.42,-16.2 236.52,-275.4 z m 3517.02,243 c 0,-21.06 -1.62,-302.94 -3.24,-626.94 l -3.24,-591.3 -68.04,-37.26 c -92.34,-50.22 -147.42,-155.52 -137.7,-255.96 l 8.1,-72.9 -189.54,-118.26 c -205.74,-129.6 -473.04,-288.36 -763.02,-451.98 -102.06,-58.32 -238.14,-137.7 -301.32,-176.58 -187.92,-116.64 -205.74,-92.34 -74.52,102.06 53.46,79.38 111.78,174.96 132.84,215.46 21.06,40.5 100.44,170.1 176.58,286.74 l 139.32,215.46 h 77.76 c 102.06,0 131.22,17.82 163.62,97.2 30.78,76.14 32.4,137.7 8.1,208.98 -17.82,50.22 -12.96,59.94 126.36,265.68 81,118.26 158.76,239.76 174.96,270.54 16.2,30.78 55.08,97.2 85.86,145.8 336.96,521.64 372.6,570.24 414.72,563.76 22.68,-3.24 34.02,-16.2 32.4,-40.5 z m -2078.46,-1009.26 c 30.78,-27.54 72.9,-53.46 95.58,-58.32 l 40.5,-9.72 3.24,-605.88 c 3.24,-578.34 1.62,-605.88 -27.54,-605.88 -19.44,0 -84.24,84.24 -208.98,272.16 -98.82,149.04 -228.42,343.44 -288.36,432.54 -100.44,149.04 -110.16,170.1 -113.4,254.34 l -4.86,92.34 170.1,92.34 c 92.34,51.84 192.78,113.4 221.94,137.7 29.16,25.92 55.08,45.36 55.08,46.98 1.62,0 27.54,-22.68 56.7,-48.6 z m 612.36,-74.52 c 283.5,-162 293.22,-170.1 293.22,-265.68 0,-69.66 -12.96,-98.82 -102.06,-238.14 -56.7,-87.48 -142.56,-228.42 -189.54,-312.66 -110.16,-194.4 -255.96,-405 -280.26,-405 -61.56,1.62 -63.18,12.96 -71.28,576.72 -3.24,302.94 -3.24,571.86 3.24,599.4 6.48,37.26 19.44,55.08 48.6,61.56 21.06,4.86 51.84,27.54 68.04,50.22 16.2,21.06 32.4,40.5 35.64,40.5 3.24,0 90.72,-48.6 194.4,-106.92 z" id="path4" style="stroke-width:1.62"></path>
    <path d="m 7765.2711,7584.4598 c -100.44,-30.78 -132.84,-174.96 -56.7,-246.24 59.94,-55.08 131.22,-50.22 189.54,12.96 51.84,59.94 59.94,127.98 17.82,179.82 -30.78,37.26 -111.78,66.42 -150.66,53.46 z" id="path6" style="stroke-width:1.62"></path>
    <path d="m 2714.1111,7565.0198 c -50.22,-46.98 -58.32,-100.44 -27.54,-160.38 61.56,-121.5 217.08,-93.96 244.62,43.74 8.1,42.12 1.62,58.32 -38.88,100.44 -58.32,58.32 -126.36,64.8 -178.2,16.2 z" id="path8" style="stroke-width:1.62"></path>
    <path d="m 5694.9111,6403.4798 c -19.44,-16.2 -38.88,-48.6 -45.36,-72.9 -8.1,-35.64 0,-53.46 38.88,-93.96 59.94,-58.32 105.3,-61.56 157.14,-8.1 63.18,61.56 51.84,139.32 -25.92,178.2 -59.94,30.78 -84.24,30.78 -124.74,-3.24 z" id="path10" style="stroke-width:1.62"></path>
    <path d="m 2475.9711,5288.9198 c -22.68,-21.06 -40.5,-55.08 -40.5,-72.9 0,-68.04 61.56,-144.18 116.64,-145.8 37.26,0 93.96,76.14 93.96,129.6 0,55.08 -56.7,129.6 -98.82,129.6 -17.82,0 -50.22,-17.82 -71.28,-40.5 z" id="path12" style="stroke-width:1.62"></path>
    <path d="m 7953.1911,5309.9798 c -56.7,-81 -14.58,-191.16 74.52,-191.16 89.1,0 145.8,140.94 81,199.26 -43.74,40.5 -126.36,35.64 -155.52,-8.1 z" id="path14" style="stroke-width:1.62"></path>
    <path d="m 4249.8711,5413.6598 c -59.94,-59.94 -61.56,-98.82 -6.48,-163.62 51.84,-61.56 115.02,-66.42 165.24,-12.96 68.04,72.9 32.4,191.16 -64.8,215.46 -35.64,8.1 -53.46,0 -93.96,-38.88 z" id="path16" style="stroke-width:1.62"></path>
    <path d="m 6180.9111,5405.5598 c -51.84,-55.08 -46.98,-131.22 11.34,-171.72 61.56,-45.36 106.92,-42.12 155.52,6.48 46.98,45.36 50.22,72.9 16.2,136.08 -38.88,76.14 -126.36,90.72 -183.06,29.16 z" id="path18" style="stroke-width:1.62"></path>
    <path d="m 4285.5111,4103.0798 c -51.84,-45.36 -53.46,-124.74 -3.24,-179.82 43.74,-46.98 98.82,-45.36 145.8,3.24 50.22,55.08 46.98,119.88 -6.48,166.86 -51.84,45.36 -92.34,46.98 -136.08,9.72 z" id="path20" style="stroke-width:1.62"></path>
    <path d="m 2744.8911,3236.3798 c -103.68,-55.08 -121.5,-153.9 -42.12,-233.28 82.62,-82.62 208.98,-30.78 228.42,93.96 17.82,100.44 -97.2,184.68 -186.3,139.32 z" id="path22" style="stroke-width:1.62"></path>
    <path d="m 7700.4711,3199.1198 c -53.46,-58.32 -50.22,-147.42 8.1,-197.64 136.08,-118.26 319.14,68.04 192.78,196.02 -58.32,56.7 -147.42,58.32 -200.88,1.62 z" id="path24" style="stroke-width:1.62"></path>
    <path d="m 8849.0511,2113.7198 c -8483.09152,7276.0281 -4241.5458,3638.0141 0,0 z" id="path32" style="stroke-width:1.62"></path>
  </g>
</svg></svg></g></g><defs><clipPath id="SvgjsClipPath1272"><rect width="1000" height="1000" x="0" y="0" rx="300" ry="300"></rect></clipPath></defs></svg></g></svg>